<mxfile host="Electron" modified="2023-05-27T15:23:36.901Z" agent="Mozilla/5.0 (Macintosh; Intel Mac OS X 10_15_7) AppleWebKit/537.36 (KHTML, like Gecko) draw.io/21.2.1 Chrome/112.0.5615.87 Electron/24.1.2 Safari/537.36" etag="xQ054YHcljjgNmum3dBW" version="21.2.1" type="device">
  <diagram name="Page-1" id="H1nZVYqxkzLZFgEqRADx">
    <mxGraphModel dx="3712" dy="4280" grid="1" gridSize="10" guides="1" tooltips="1" connect="1" arrows="1" fold="1" page="1" pageScale="1" pageWidth="850" pageHeight="1100" math="0" shadow="0">
      <root>
        <mxCell id="0" />
        <mxCell id="1" parent="0" />
        <mxCell id="AsBp8XiL8Dx4Y6rQVwFH-2021" value="R, W: 120, H: 91, ORDER: 12, GC: {43, 30, 47, 13, 17, 48, 8, 4, 16, 12, 44, 28} " style="text;html=1;strokeColor=none;fillColor=none;align=center;verticalAlign=middle;whiteSpace=wrap;rounded=0;flipV=1;" parent="1" vertex="1">
          <mxGeometry x="50" width="1200" height="30" as="geometry" />
        </mxCell>
        <mxCell id="AsBp8XiL8Dx4Y6rQVwFH-2099" value="R, W: 120, H: 101, ORDER: 12, GC: {49, 30, 41, 19, 11, 24, 28, 52, 16, 36, 4, 32} " style="text;html=1;strokeColor=none;fillColor=none;align=center;verticalAlign=middle;whiteSpace=wrap;rounded=0;flipV=1;" parent="1" vertex="1">
          <mxGeometry x="50" y="1160" width="1200" height="30" as="geometry" />
        </mxCell>
        <mxCell id="AsBp8XiL8Dx4Y6rQVwFH-2769" value="R, W: 120, H: 109, ORDER: 13, GC: {49, 30, 41, 19, 11, 16, 36, 60, 8, 24, 4, 32, 28} " style="text;html=1;strokeColor=none;fillColor=none;align=center;verticalAlign=middle;whiteSpace=wrap;rounded=0;flipV=1;" parent="1" vertex="1">
          <mxGeometry x="90" y="2420" width="1200" height="30" as="geometry" />
        </mxCell>
        <mxCell id="AsBp8XiL8Dx4Y6rQVwFH-3713" value="R, W: 120, H: 118, ORDER: 15, GC: {55, 19, 16, 30, 3, 13, 22, 12, 1, 31, 14, 20, 63, 6, 57} A" style="text;html=1;strokeColor=none;fillColor=none;align=center;verticalAlign=middle;whiteSpace=wrap;rounded=0;flipV=1;" parent="1" vertex="1">
          <mxGeometry x="60" y="3800" width="1200" height="30" as="geometry" />
        </mxCell>
        <mxCell id="AsBp8XiL8Dx4Y6rQVwFH-3777" value="R, W: 120, H: 118, ORDER: 15, GC: {53, 21, 16, 30, 5, 11, 20, 6, 14, 3, 33, 12, 22, 65, 55} B" style="text;html=1;strokeColor=none;fillColor=none;align=center;verticalAlign=middle;whiteSpace=wrap;rounded=0;flipV=1;" parent="1" vertex="1">
          <mxGeometry x="60" y="5090" width="1200" height="30" as="geometry" />
        </mxCell>
        <mxCell id="AsBp8XiL8Dx4Y6rQVwFH-10589" value="R, W: 120, H: 99, ORDER: 19, GC: {49, 32, 39, 17, 15, 8, 7, 24, 2, 5, 18, 4, 1, 3, 12, 36, 50, 16, 34} " style="text;html=1;strokeColor=none;fillColor=none;align=center;verticalAlign=middle;whiteSpace=wrap;rounded=0;flipV=1;" parent="1" vertex="1">
          <mxGeometry x="110" y="6570" width="1200" height="30" as="geometry" />
        </mxCell>
        <mxCell id="AsBp8XiL8Dx4Y6rQVwFH-16178" value="R, W: 120, H: 105, ORDER: 20, GC: {40, 19, 17, 44, 2, 15, 21, 8, 7, 1, 6, 12, 32, 65, 5, 11, 23, 3, 29, 26} " style="text;html=1;strokeColor=none;fillColor=none;align=center;verticalAlign=middle;whiteSpace=wrap;rounded=0;flipV=1;" parent="1" vertex="1">
          <mxGeometry x="90" y="7670" width="1200" height="30" as="geometry" />
        </mxCell>
        <mxCell id="AsBp8XiL8Dx4Y6rQVwFH-16283" value="R, W: 120, H: 117, ORDER: 20, GC: {55, 32, 33, 23, 9, 8, 25, 17, 62, 16, 13, 29, 18, 11, 7, 4, 3, 1, 30, 28} " style="text;html=1;strokeColor=none;fillColor=none;align=center;verticalAlign=middle;whiteSpace=wrap;rounded=0;flipV=1;" parent="1" vertex="1">
          <mxGeometry x="90" y="8870" width="1200" height="30" as="geometry" />
        </mxCell>
        <mxCell id="AsBp8XiL8Dx4Y6rQVwFH-45950" value="S, W: 120, H: 120, ORDER: 24, GC: {40, 34, 46, 6, 16, 12, 14, 9, 13, 5, 4, 10, 25, 3, 23, 20, 19, 33, 17, 8, 41, 47, 15, 32} " style="text;html=1;strokeColor=none;fillColor=none;align=center;verticalAlign=middle;whiteSpace=wrap;rounded=0;flipV=1;" parent="1" vertex="1">
          <mxGeometry x="90" y="10140" width="1200" height="30" as="geometry" />
        </mxCell>
        <mxCell id="hqfgi3WCI-vw1G1QX6A0-1" value="" style="group;flipV=1;" vertex="1" connectable="0" parent="1">
          <mxGeometry x="50" y="50" width="1200" height="910" as="geometry" />
        </mxCell>
        <mxCell id="761dnnyQ54j-Cl0NHfQN-2022" value="43" style="rounded=0;whiteSpace=wrap;html=1;" parent="hqfgi3WCI-vw1G1QX6A0-1" vertex="1">
          <mxGeometry y="480" width="430" height="430" as="geometry" />
        </mxCell>
        <mxCell id="761dnnyQ54j-Cl0NHfQN-2023" value="30" style="rounded=0;whiteSpace=wrap;html=1;" parent="hqfgi3WCI-vw1G1QX6A0-1" vertex="1">
          <mxGeometry x="430" y="610" width="300" height="300" as="geometry" />
        </mxCell>
        <mxCell id="761dnnyQ54j-Cl0NHfQN-2024" value="47" style="rounded=0;whiteSpace=wrap;html=1;" parent="hqfgi3WCI-vw1G1QX6A0-1" vertex="1">
          <mxGeometry x="730" y="440" width="470" height="470" as="geometry" />
        </mxCell>
        <mxCell id="761dnnyQ54j-Cl0NHfQN-2025" value="13" style="rounded=0;whiteSpace=wrap;html=1;" parent="hqfgi3WCI-vw1G1QX6A0-1" vertex="1">
          <mxGeometry x="430" y="480" width="130" height="130" as="geometry" />
        </mxCell>
        <mxCell id="761dnnyQ54j-Cl0NHfQN-2026" value="17" style="rounded=0;whiteSpace=wrap;html=1;" parent="hqfgi3WCI-vw1G1QX6A0-1" vertex="1">
          <mxGeometry x="560" y="440" width="170" height="170" as="geometry" />
        </mxCell>
        <mxCell id="761dnnyQ54j-Cl0NHfQN-2027" value="48" style="rounded=0;whiteSpace=wrap;html=1;" parent="hqfgi3WCI-vw1G1QX6A0-1" vertex="1">
          <mxGeometry width="480" height="480" as="geometry" />
        </mxCell>
        <mxCell id="761dnnyQ54j-Cl0NHfQN-2028" value="8" style="rounded=0;whiteSpace=wrap;html=1;" parent="hqfgi3WCI-vw1G1QX6A0-1" vertex="1">
          <mxGeometry x="480" y="400" width="80" height="80" as="geometry" />
        </mxCell>
        <mxCell id="761dnnyQ54j-Cl0NHfQN-2029" value="4" style="rounded=0;whiteSpace=wrap;html=1;" parent="hqfgi3WCI-vw1G1QX6A0-1" vertex="1">
          <mxGeometry x="560" y="400" width="40" height="40" as="geometry" />
        </mxCell>
        <mxCell id="761dnnyQ54j-Cl0NHfQN-2030" value="16" style="rounded=0;whiteSpace=wrap;html=1;" parent="hqfgi3WCI-vw1G1QX6A0-1" vertex="1">
          <mxGeometry x="600" y="280" width="160" height="160" as="geometry" />
        </mxCell>
        <mxCell id="761dnnyQ54j-Cl0NHfQN-2031" value="12" style="rounded=0;whiteSpace=wrap;html=1;" parent="hqfgi3WCI-vw1G1QX6A0-1" vertex="1">
          <mxGeometry x="480" y="280" width="120" height="120" as="geometry" />
        </mxCell>
        <mxCell id="761dnnyQ54j-Cl0NHfQN-2032" value="44" style="rounded=0;whiteSpace=wrap;html=1;" parent="hqfgi3WCI-vw1G1QX6A0-1" vertex="1">
          <mxGeometry x="760" width="440" height="440" as="geometry" />
        </mxCell>
        <mxCell id="761dnnyQ54j-Cl0NHfQN-2033" value="28" style="rounded=0;whiteSpace=wrap;html=1;" parent="hqfgi3WCI-vw1G1QX6A0-1" vertex="1">
          <mxGeometry x="480" width="280" height="280" as="geometry" />
        </mxCell>
        <mxCell id="hqfgi3WCI-vw1G1QX6A0-2" value="" style="group;flipV=1;" vertex="1" connectable="0" parent="1">
          <mxGeometry x="50" y="1210" width="1200" height="1010" as="geometry" />
        </mxCell>
        <mxCell id="761dnnyQ54j-Cl0NHfQN-2100" value="49" style="rounded=0;whiteSpace=wrap;html=1;" parent="hqfgi3WCI-vw1G1QX6A0-2" vertex="1">
          <mxGeometry y="520" width="490" height="490" as="geometry" />
        </mxCell>
        <mxCell id="761dnnyQ54j-Cl0NHfQN-2101" value="30" style="rounded=0;whiteSpace=wrap;html=1;" parent="hqfgi3WCI-vw1G1QX6A0-2" vertex="1">
          <mxGeometry x="490" y="710" width="300" height="300" as="geometry" />
        </mxCell>
        <mxCell id="761dnnyQ54j-Cl0NHfQN-2102" value="41" style="rounded=0;whiteSpace=wrap;html=1;" parent="hqfgi3WCI-vw1G1QX6A0-2" vertex="1">
          <mxGeometry x="790" y="600" width="410" height="410" as="geometry" />
        </mxCell>
        <mxCell id="761dnnyQ54j-Cl0NHfQN-2103" value="19" style="rounded=0;whiteSpace=wrap;html=1;" parent="hqfgi3WCI-vw1G1QX6A0-2" vertex="1">
          <mxGeometry x="490" y="520" width="190" height="190" as="geometry" />
        </mxCell>
        <mxCell id="761dnnyQ54j-Cl0NHfQN-2104" value="11" style="rounded=0;whiteSpace=wrap;html=1;" parent="hqfgi3WCI-vw1G1QX6A0-2" vertex="1">
          <mxGeometry x="680" y="600" width="110" height="110" as="geometry" />
        </mxCell>
        <mxCell id="761dnnyQ54j-Cl0NHfQN-2105" value="24" style="rounded=0;whiteSpace=wrap;html=1;" parent="hqfgi3WCI-vw1G1QX6A0-2" vertex="1">
          <mxGeometry x="680" y="360" width="240" height="240" as="geometry" />
        </mxCell>
        <mxCell id="761dnnyQ54j-Cl0NHfQN-2106" value="28" style="rounded=0;whiteSpace=wrap;html=1;" parent="hqfgi3WCI-vw1G1QX6A0-2" vertex="1">
          <mxGeometry x="920" y="320" width="280" height="280" as="geometry" />
        </mxCell>
        <mxCell id="761dnnyQ54j-Cl0NHfQN-2107" value="52" style="rounded=0;whiteSpace=wrap;html=1;" parent="hqfgi3WCI-vw1G1QX6A0-2" vertex="1">
          <mxGeometry width="520" height="520" as="geometry" />
        </mxCell>
        <mxCell id="761dnnyQ54j-Cl0NHfQN-2108" value="16" style="rounded=0;whiteSpace=wrap;html=1;" parent="hqfgi3WCI-vw1G1QX6A0-2" vertex="1">
          <mxGeometry x="520" y="360" width="160" height="160" as="geometry" />
        </mxCell>
        <mxCell id="761dnnyQ54j-Cl0NHfQN-2109" value="36" style="rounded=0;whiteSpace=wrap;html=1;" parent="hqfgi3WCI-vw1G1QX6A0-2" vertex="1">
          <mxGeometry x="520" width="360" height="360" as="geometry" />
        </mxCell>
        <mxCell id="761dnnyQ54j-Cl0NHfQN-2110" value="4" style="rounded=0;whiteSpace=wrap;html=1;" parent="hqfgi3WCI-vw1G1QX6A0-2" vertex="1">
          <mxGeometry x="880" y="320" width="40" height="40" as="geometry" />
        </mxCell>
        <mxCell id="761dnnyQ54j-Cl0NHfQN-2111" value="32" style="rounded=0;whiteSpace=wrap;html=1;" parent="hqfgi3WCI-vw1G1QX6A0-2" vertex="1">
          <mxGeometry x="880" width="320" height="320" as="geometry" />
        </mxCell>
        <mxCell id="hqfgi3WCI-vw1G1QX6A0-3" value="" style="group;flipV=1;" vertex="1" connectable="0" parent="1">
          <mxGeometry x="90" y="2470" width="1200" height="1090" as="geometry" />
        </mxCell>
        <mxCell id="761dnnyQ54j-Cl0NHfQN-2770" value="49" style="rounded=0;whiteSpace=wrap;html=1;" parent="hqfgi3WCI-vw1G1QX6A0-3" vertex="1">
          <mxGeometry y="600" width="490" height="490" as="geometry" />
        </mxCell>
        <mxCell id="761dnnyQ54j-Cl0NHfQN-2771" value="30" style="rounded=0;whiteSpace=wrap;html=1;" parent="hqfgi3WCI-vw1G1QX6A0-3" vertex="1">
          <mxGeometry x="490" y="790" width="300" height="300" as="geometry" />
        </mxCell>
        <mxCell id="761dnnyQ54j-Cl0NHfQN-2772" value="41" style="rounded=0;whiteSpace=wrap;html=1;" parent="hqfgi3WCI-vw1G1QX6A0-3" vertex="1">
          <mxGeometry x="790" y="680" width="410" height="410" as="geometry" />
        </mxCell>
        <mxCell id="761dnnyQ54j-Cl0NHfQN-2773" value="19" style="rounded=0;whiteSpace=wrap;html=1;" parent="hqfgi3WCI-vw1G1QX6A0-3" vertex="1">
          <mxGeometry x="490" y="600" width="190" height="190" as="geometry" />
        </mxCell>
        <mxCell id="761dnnyQ54j-Cl0NHfQN-2774" value="11" style="rounded=0;whiteSpace=wrap;html=1;" parent="hqfgi3WCI-vw1G1QX6A0-3" vertex="1">
          <mxGeometry x="680" y="680" width="110" height="110" as="geometry" />
        </mxCell>
        <mxCell id="761dnnyQ54j-Cl0NHfQN-2775" value="16" style="rounded=0;whiteSpace=wrap;html=1;" parent="hqfgi3WCI-vw1G1QX6A0-3" vertex="1">
          <mxGeometry x="680" y="520" width="160" height="160" as="geometry" />
        </mxCell>
        <mxCell id="761dnnyQ54j-Cl0NHfQN-2776" value="36" style="rounded=0;whiteSpace=wrap;html=1;" parent="hqfgi3WCI-vw1G1QX6A0-3" vertex="1">
          <mxGeometry x="840" y="320" width="360" height="360" as="geometry" />
        </mxCell>
        <mxCell id="761dnnyQ54j-Cl0NHfQN-2777" value="60" style="rounded=0;whiteSpace=wrap;html=1;" parent="hqfgi3WCI-vw1G1QX6A0-3" vertex="1">
          <mxGeometry width="600" height="600" as="geometry" />
        </mxCell>
        <mxCell id="761dnnyQ54j-Cl0NHfQN-2778" value="8" style="rounded=0;whiteSpace=wrap;html=1;" parent="hqfgi3WCI-vw1G1QX6A0-3" vertex="1">
          <mxGeometry x="600" y="520" width="80" height="80" as="geometry" />
        </mxCell>
        <mxCell id="761dnnyQ54j-Cl0NHfQN-2779" value="24" style="rounded=0;whiteSpace=wrap;html=1;" parent="hqfgi3WCI-vw1G1QX6A0-3" vertex="1">
          <mxGeometry x="600" y="280" width="240" height="240" as="geometry" />
        </mxCell>
        <mxCell id="761dnnyQ54j-Cl0NHfQN-2780" value="4" style="rounded=0;whiteSpace=wrap;html=1;" parent="hqfgi3WCI-vw1G1QX6A0-3" vertex="1">
          <mxGeometry x="840" y="280" width="40" height="40" as="geometry" />
        </mxCell>
        <mxCell id="761dnnyQ54j-Cl0NHfQN-2781" value="32" style="rounded=0;whiteSpace=wrap;html=1;" parent="hqfgi3WCI-vw1G1QX6A0-3" vertex="1">
          <mxGeometry x="880" width="320" height="320" as="geometry" />
        </mxCell>
        <mxCell id="761dnnyQ54j-Cl0NHfQN-2782" value="28" style="rounded=0;whiteSpace=wrap;html=1;" parent="hqfgi3WCI-vw1G1QX6A0-3" vertex="1">
          <mxGeometry x="600" width="280" height="280" as="geometry" />
        </mxCell>
        <mxCell id="hqfgi3WCI-vw1G1QX6A0-4" value="" style="group;flipV=1;" vertex="1" connectable="0" parent="1">
          <mxGeometry x="60" y="3850" width="1200" height="1180" as="geometry" />
        </mxCell>
        <mxCell id="761dnnyQ54j-Cl0NHfQN-3714" value="55" style="rounded=0;whiteSpace=wrap;html=1;" parent="hqfgi3WCI-vw1G1QX6A0-4" vertex="1">
          <mxGeometry y="630" width="550" height="550" as="geometry" />
        </mxCell>
        <mxCell id="761dnnyQ54j-Cl0NHfQN-3715" value="19" style="rounded=0;whiteSpace=wrap;html=1;" parent="hqfgi3WCI-vw1G1QX6A0-4" vertex="1">
          <mxGeometry x="550" y="990" width="190" height="190" as="geometry" />
        </mxCell>
        <mxCell id="761dnnyQ54j-Cl0NHfQN-3716" value="16" style="rounded=0;whiteSpace=wrap;html=1;" parent="hqfgi3WCI-vw1G1QX6A0-4" vertex="1">
          <mxGeometry x="740" y="1020" width="160" height="160" as="geometry" />
        </mxCell>
        <mxCell id="761dnnyQ54j-Cl0NHfQN-3717" value="30" style="rounded=0;whiteSpace=wrap;html=1;" parent="hqfgi3WCI-vw1G1QX6A0-4" vertex="1">
          <mxGeometry x="900" y="880" width="300" height="300" as="geometry" />
        </mxCell>
        <mxCell id="761dnnyQ54j-Cl0NHfQN-3718" value="3" style="rounded=0;whiteSpace=wrap;html=1;" parent="hqfgi3WCI-vw1G1QX6A0-4" vertex="1">
          <mxGeometry x="740" y="990" width="30" height="30" as="geometry" />
        </mxCell>
        <mxCell id="761dnnyQ54j-Cl0NHfQN-3719" value="13" style="rounded=0;whiteSpace=wrap;html=1;" parent="hqfgi3WCI-vw1G1QX6A0-4" vertex="1">
          <mxGeometry x="770" y="890" width="130" height="130" as="geometry" />
        </mxCell>
        <mxCell id="761dnnyQ54j-Cl0NHfQN-3720" value="22" style="rounded=0;whiteSpace=wrap;html=1;" parent="hqfgi3WCI-vw1G1QX6A0-4" vertex="1">
          <mxGeometry x="550" y="770" width="220" height="220" as="geometry" />
        </mxCell>
        <mxCell id="761dnnyQ54j-Cl0NHfQN-3721" value="12" style="rounded=0;whiteSpace=wrap;html=1;" parent="hqfgi3WCI-vw1G1QX6A0-4" vertex="1">
          <mxGeometry x="770" y="770" width="120" height="120" as="geometry" />
        </mxCell>
        <mxCell id="761dnnyQ54j-Cl0NHfQN-3722" value="1" style="rounded=0;whiteSpace=wrap;html=1;" parent="hqfgi3WCI-vw1G1QX6A0-4" vertex="1">
          <mxGeometry x="890" y="880" width="10" height="10" as="geometry" />
        </mxCell>
        <mxCell id="761dnnyQ54j-Cl0NHfQN-3723" value="31" style="rounded=0;whiteSpace=wrap;html=1;" parent="hqfgi3WCI-vw1G1QX6A0-4" vertex="1">
          <mxGeometry x="890" y="570" width="310" height="310" as="geometry" />
        </mxCell>
        <mxCell id="761dnnyQ54j-Cl0NHfQN-3724" value="14" style="rounded=0;whiteSpace=wrap;html=1;" parent="hqfgi3WCI-vw1G1QX6A0-4" vertex="1">
          <mxGeometry x="550" y="630" width="140" height="140" as="geometry" />
        </mxCell>
        <mxCell id="761dnnyQ54j-Cl0NHfQN-3725" value="20" style="rounded=0;whiteSpace=wrap;html=1;" parent="hqfgi3WCI-vw1G1QX6A0-4" vertex="1">
          <mxGeometry x="690" y="570" width="200" height="200" as="geometry" />
        </mxCell>
        <mxCell id="761dnnyQ54j-Cl0NHfQN-3726" value="63" style="rounded=0;whiteSpace=wrap;html=1;" parent="hqfgi3WCI-vw1G1QX6A0-4" vertex="1">
          <mxGeometry width="630" height="630" as="geometry" />
        </mxCell>
        <mxCell id="761dnnyQ54j-Cl0NHfQN-3727" value="6" style="rounded=0;whiteSpace=wrap;html=1;" parent="hqfgi3WCI-vw1G1QX6A0-4" vertex="1">
          <mxGeometry x="630" y="570" width="60" height="60" as="geometry" />
        </mxCell>
        <mxCell id="761dnnyQ54j-Cl0NHfQN-3728" value="57" style="rounded=0;whiteSpace=wrap;html=1;" parent="hqfgi3WCI-vw1G1QX6A0-4" vertex="1">
          <mxGeometry x="630" width="570" height="570" as="geometry" />
        </mxCell>
        <mxCell id="hqfgi3WCI-vw1G1QX6A0-5" value="" style="group;flipV=1;" vertex="1" connectable="0" parent="1">
          <mxGeometry x="60" y="5140" width="1200" height="1180" as="geometry" />
        </mxCell>
        <mxCell id="761dnnyQ54j-Cl0NHfQN-3778" value="53" style="rounded=0;whiteSpace=wrap;html=1;" parent="hqfgi3WCI-vw1G1QX6A0-5" vertex="1">
          <mxGeometry y="650" width="530" height="530" as="geometry" />
        </mxCell>
        <mxCell id="761dnnyQ54j-Cl0NHfQN-3779" value="21" style="rounded=0;whiteSpace=wrap;html=1;" parent="hqfgi3WCI-vw1G1QX6A0-5" vertex="1">
          <mxGeometry x="530" y="970" width="210" height="210" as="geometry" />
        </mxCell>
        <mxCell id="761dnnyQ54j-Cl0NHfQN-3780" value="16" style="rounded=0;whiteSpace=wrap;html=1;" parent="hqfgi3WCI-vw1G1QX6A0-5" vertex="1">
          <mxGeometry x="740" y="1020" width="160" height="160" as="geometry" />
        </mxCell>
        <mxCell id="761dnnyQ54j-Cl0NHfQN-3781" value="30" style="rounded=0;whiteSpace=wrap;html=1;" parent="hqfgi3WCI-vw1G1QX6A0-5" vertex="1">
          <mxGeometry x="900" y="880" width="300" height="300" as="geometry" />
        </mxCell>
        <mxCell id="761dnnyQ54j-Cl0NHfQN-3782" value="5" style="rounded=0;whiteSpace=wrap;html=1;" parent="hqfgi3WCI-vw1G1QX6A0-5" vertex="1">
          <mxGeometry x="740" y="970" width="50" height="50" as="geometry" />
        </mxCell>
        <mxCell id="761dnnyQ54j-Cl0NHfQN-3783" value="11" style="rounded=0;whiteSpace=wrap;html=1;" parent="hqfgi3WCI-vw1G1QX6A0-5" vertex="1">
          <mxGeometry x="790" y="910" width="110" height="110" as="geometry" />
        </mxCell>
        <mxCell id="761dnnyQ54j-Cl0NHfQN-3784" value="20" style="rounded=0;whiteSpace=wrap;html=1;" parent="hqfgi3WCI-vw1G1QX6A0-5" vertex="1">
          <mxGeometry x="530" y="770" width="200" height="200" as="geometry" />
        </mxCell>
        <mxCell id="761dnnyQ54j-Cl0NHfQN-3785" value="6" style="rounded=0;whiteSpace=wrap;html=1;" parent="hqfgi3WCI-vw1G1QX6A0-5" vertex="1">
          <mxGeometry x="730" y="910" width="60" height="60" as="geometry" />
        </mxCell>
        <mxCell id="761dnnyQ54j-Cl0NHfQN-3786" value="14" style="rounded=0;whiteSpace=wrap;html=1;" parent="hqfgi3WCI-vw1G1QX6A0-5" vertex="1">
          <mxGeometry x="730" y="770" width="140" height="140" as="geometry" />
        </mxCell>
        <mxCell id="761dnnyQ54j-Cl0NHfQN-3787" value="3" style="rounded=0;whiteSpace=wrap;html=1;" parent="hqfgi3WCI-vw1G1QX6A0-5" vertex="1">
          <mxGeometry x="870" y="880" width="30" height="30" as="geometry" />
        </mxCell>
        <mxCell id="761dnnyQ54j-Cl0NHfQN-3788" value="33" style="rounded=0;whiteSpace=wrap;html=1;" parent="hqfgi3WCI-vw1G1QX6A0-5" vertex="1">
          <mxGeometry x="870" y="550" width="330" height="330" as="geometry" />
        </mxCell>
        <mxCell id="761dnnyQ54j-Cl0NHfQN-3789" value="12" style="rounded=0;whiteSpace=wrap;html=1;" parent="hqfgi3WCI-vw1G1QX6A0-5" vertex="1">
          <mxGeometry x="530" y="650" width="120" height="120" as="geometry" />
        </mxCell>
        <mxCell id="761dnnyQ54j-Cl0NHfQN-3790" value="22" style="rounded=0;whiteSpace=wrap;html=1;" parent="hqfgi3WCI-vw1G1QX6A0-5" vertex="1">
          <mxGeometry x="650" y="550" width="220" height="220" as="geometry" />
        </mxCell>
        <mxCell id="761dnnyQ54j-Cl0NHfQN-3791" value="65" style="rounded=0;whiteSpace=wrap;html=1;" parent="hqfgi3WCI-vw1G1QX6A0-5" vertex="1">
          <mxGeometry width="650" height="650" as="geometry" />
        </mxCell>
        <mxCell id="761dnnyQ54j-Cl0NHfQN-3792" value="55" style="rounded=0;whiteSpace=wrap;html=1;" parent="hqfgi3WCI-vw1G1QX6A0-5" vertex="1">
          <mxGeometry x="650" width="550" height="550" as="geometry" />
        </mxCell>
        <mxCell id="hqfgi3WCI-vw1G1QX6A0-6" value="" style="group;flipV=1;" vertex="1" connectable="0" parent="1">
          <mxGeometry x="75" y="6610" width="1200" height="990" as="geometry" />
        </mxCell>
        <mxCell id="761dnnyQ54j-Cl0NHfQN-10590" value="49" style="rounded=0;whiteSpace=wrap;html=1;" parent="hqfgi3WCI-vw1G1QX6A0-6" vertex="1">
          <mxGeometry y="500" width="490" height="490" as="geometry" />
        </mxCell>
        <mxCell id="761dnnyQ54j-Cl0NHfQN-10591" value="32" style="rounded=0;whiteSpace=wrap;html=1;" parent="hqfgi3WCI-vw1G1QX6A0-6" vertex="1">
          <mxGeometry x="490" y="670" width="320" height="320" as="geometry" />
        </mxCell>
        <mxCell id="761dnnyQ54j-Cl0NHfQN-10592" value="39" style="rounded=0;whiteSpace=wrap;html=1;" parent="hqfgi3WCI-vw1G1QX6A0-6" vertex="1">
          <mxGeometry x="810" y="600" width="390" height="390" as="geometry" />
        </mxCell>
        <mxCell id="761dnnyQ54j-Cl0NHfQN-10593" value="17" style="rounded=0;whiteSpace=wrap;html=1;" parent="hqfgi3WCI-vw1G1QX6A0-6" vertex="1">
          <mxGeometry x="490" y="500" width="170" height="170" as="geometry" />
        </mxCell>
        <mxCell id="761dnnyQ54j-Cl0NHfQN-10594" value="15" style="rounded=0;whiteSpace=wrap;html=1;" parent="hqfgi3WCI-vw1G1QX6A0-6" vertex="1">
          <mxGeometry x="660" y="520" width="150" height="150" as="geometry" />
        </mxCell>
        <mxCell id="761dnnyQ54j-Cl0NHfQN-10595" value="8" style="rounded=0;whiteSpace=wrap;html=1;" parent="hqfgi3WCI-vw1G1QX6A0-6" vertex="1">
          <mxGeometry x="810" y="520" width="80" height="80" as="geometry" />
        </mxCell>
        <mxCell id="761dnnyQ54j-Cl0NHfQN-10596" value="7" style="rounded=0;whiteSpace=wrap;html=1;" parent="hqfgi3WCI-vw1G1QX6A0-6" vertex="1">
          <mxGeometry x="890" y="530" width="70" height="70" as="geometry" />
        </mxCell>
        <mxCell id="761dnnyQ54j-Cl0NHfQN-10597" value="24" style="rounded=0;whiteSpace=wrap;html=1;" parent="hqfgi3WCI-vw1G1QX6A0-6" vertex="1">
          <mxGeometry x="960" y="360" width="240" height="240" as="geometry" />
        </mxCell>
        <mxCell id="761dnnyQ54j-Cl0NHfQN-10598" value="2" style="rounded=0;whiteSpace=wrap;html=1;" parent="hqfgi3WCI-vw1G1QX6A0-6" vertex="1">
          <mxGeometry x="890" y="510" width="20" height="20" as="geometry" />
        </mxCell>
        <mxCell id="761dnnyQ54j-Cl0NHfQN-10599" value="5" style="rounded=0;whiteSpace=wrap;html=1;" parent="hqfgi3WCI-vw1G1QX6A0-6" vertex="1">
          <mxGeometry x="910" y="480" width="50" height="50" as="geometry" />
        </mxCell>
        <mxCell id="761dnnyQ54j-Cl0NHfQN-10600" value="18" style="rounded=0;whiteSpace=wrap;html=1;" parent="hqfgi3WCI-vw1G1QX6A0-6" vertex="1">
          <mxGeometry x="660" y="340" width="180" height="180" as="geometry" />
        </mxCell>
        <mxCell id="761dnnyQ54j-Cl0NHfQN-10601" value="4" style="rounded=0;whiteSpace=wrap;html=1;" parent="hqfgi3WCI-vw1G1QX6A0-6" vertex="1">
          <mxGeometry x="840" y="480" width="40" height="40" as="geometry" />
        </mxCell>
        <mxCell id="761dnnyQ54j-Cl0NHfQN-10602" value="1" style="rounded=0;whiteSpace=wrap;html=1;" parent="hqfgi3WCI-vw1G1QX6A0-6" vertex="1">
          <mxGeometry x="880" y="510" width="10" height="10" as="geometry" />
        </mxCell>
        <mxCell id="761dnnyQ54j-Cl0NHfQN-10603" value="3" style="rounded=0;whiteSpace=wrap;html=1;" parent="hqfgi3WCI-vw1G1QX6A0-6" vertex="1">
          <mxGeometry x="880" y="480" width="30" height="30" as="geometry" />
        </mxCell>
        <mxCell id="761dnnyQ54j-Cl0NHfQN-10604" value="12" style="rounded=0;whiteSpace=wrap;html=1;" parent="hqfgi3WCI-vw1G1QX6A0-6" vertex="1">
          <mxGeometry x="840" y="360" width="120" height="120" as="geometry" />
        </mxCell>
        <mxCell id="761dnnyQ54j-Cl0NHfQN-10605" value="36" style="rounded=0;whiteSpace=wrap;html=1;" parent="hqfgi3WCI-vw1G1QX6A0-6" vertex="1">
          <mxGeometry x="840" width="360" height="360" as="geometry" />
        </mxCell>
        <mxCell id="761dnnyQ54j-Cl0NHfQN-10606" value="50" style="rounded=0;whiteSpace=wrap;html=1;" parent="hqfgi3WCI-vw1G1QX6A0-6" vertex="1">
          <mxGeometry width="500" height="500" as="geometry" />
        </mxCell>
        <mxCell id="761dnnyQ54j-Cl0NHfQN-10607" value="16" style="rounded=0;whiteSpace=wrap;html=1;" parent="hqfgi3WCI-vw1G1QX6A0-6" vertex="1">
          <mxGeometry x="500" y="340" width="160" height="160" as="geometry" />
        </mxCell>
        <mxCell id="761dnnyQ54j-Cl0NHfQN-10608" value="34" style="rounded=0;whiteSpace=wrap;html=1;" parent="hqfgi3WCI-vw1G1QX6A0-6" vertex="1">
          <mxGeometry x="500" width="340" height="340" as="geometry" />
        </mxCell>
        <mxCell id="hqfgi3WCI-vw1G1QX6A0-7" value="" style="group;flipV=1;" vertex="1" connectable="0" parent="1">
          <mxGeometry x="90" y="7720" width="1200" height="1050" as="geometry" />
        </mxCell>
        <mxCell id="761dnnyQ54j-Cl0NHfQN-16179" value="40" style="rounded=0;whiteSpace=wrap;html=1;" parent="hqfgi3WCI-vw1G1QX6A0-7" vertex="1">
          <mxGeometry y="650" width="400" height="400" as="geometry" />
        </mxCell>
        <mxCell id="761dnnyQ54j-Cl0NHfQN-16180" value="19" style="rounded=0;whiteSpace=wrap;html=1;" parent="hqfgi3WCI-vw1G1QX6A0-7" vertex="1">
          <mxGeometry x="400" y="860" width="190" height="190" as="geometry" />
        </mxCell>
        <mxCell id="761dnnyQ54j-Cl0NHfQN-16181" value="17" style="rounded=0;whiteSpace=wrap;html=1;" parent="hqfgi3WCI-vw1G1QX6A0-7" vertex="1">
          <mxGeometry x="590" y="880" width="170" height="170" as="geometry" />
        </mxCell>
        <mxCell id="761dnnyQ54j-Cl0NHfQN-16182" value="44" style="rounded=0;whiteSpace=wrap;html=1;" parent="hqfgi3WCI-vw1G1QX6A0-7" vertex="1">
          <mxGeometry x="760" y="610" width="440" height="440" as="geometry" />
        </mxCell>
        <mxCell id="761dnnyQ54j-Cl0NHfQN-16183" value="2" style="rounded=0;whiteSpace=wrap;html=1;" parent="hqfgi3WCI-vw1G1QX6A0-7" vertex="1">
          <mxGeometry x="590" y="860" width="20" height="20" as="geometry" />
        </mxCell>
        <mxCell id="761dnnyQ54j-Cl0NHfQN-16184" value="15" style="rounded=0;whiteSpace=wrap;html=1;" parent="hqfgi3WCI-vw1G1QX6A0-7" vertex="1">
          <mxGeometry x="610" y="730" width="150" height="150" as="geometry" />
        </mxCell>
        <mxCell id="761dnnyQ54j-Cl0NHfQN-16185" value="21" style="rounded=0;whiteSpace=wrap;html=1;" parent="hqfgi3WCI-vw1G1QX6A0-7" vertex="1">
          <mxGeometry x="400" y="650" width="210" height="210" as="geometry" />
        </mxCell>
        <mxCell id="761dnnyQ54j-Cl0NHfQN-16186" value="8" style="rounded=0;whiteSpace=wrap;html=1;" parent="hqfgi3WCI-vw1G1QX6A0-7" vertex="1">
          <mxGeometry x="610" y="650" width="80" height="80" as="geometry" />
        </mxCell>
        <mxCell id="761dnnyQ54j-Cl0NHfQN-16187" value="7" style="rounded=0;whiteSpace=wrap;html=1;" parent="hqfgi3WCI-vw1G1QX6A0-7" vertex="1">
          <mxGeometry x="690" y="660" width="70" height="70" as="geometry" />
        </mxCell>
        <mxCell id="761dnnyQ54j-Cl0NHfQN-16188" value="1" style="rounded=0;whiteSpace=wrap;html=1;" parent="hqfgi3WCI-vw1G1QX6A0-7" vertex="1">
          <mxGeometry x="690" y="650" width="10" height="10" as="geometry" />
        </mxCell>
        <mxCell id="761dnnyQ54j-Cl0NHfQN-16189" value="6" style="rounded=0;whiteSpace=wrap;html=1;" parent="hqfgi3WCI-vw1G1QX6A0-7" vertex="1">
          <mxGeometry x="700" y="600" width="60" height="60" as="geometry" />
        </mxCell>
        <mxCell id="761dnnyQ54j-Cl0NHfQN-16190" value="12" style="rounded=0;whiteSpace=wrap;html=1;" parent="hqfgi3WCI-vw1G1QX6A0-7" vertex="1">
          <mxGeometry x="760" y="490" width="120" height="120" as="geometry" />
        </mxCell>
        <mxCell id="761dnnyQ54j-Cl0NHfQN-16191" value="32" style="rounded=0;whiteSpace=wrap;html=1;" parent="hqfgi3WCI-vw1G1QX6A0-7" vertex="1">
          <mxGeometry x="880" y="290" width="320" height="320" as="geometry" />
        </mxCell>
        <mxCell id="761dnnyQ54j-Cl0NHfQN-16192" value="65" style="rounded=0;whiteSpace=wrap;html=1;" parent="hqfgi3WCI-vw1G1QX6A0-7" vertex="1">
          <mxGeometry width="650" height="650" as="geometry" />
        </mxCell>
        <mxCell id="761dnnyQ54j-Cl0NHfQN-16193" value="5" style="rounded=0;whiteSpace=wrap;html=1;" parent="hqfgi3WCI-vw1G1QX6A0-7" vertex="1">
          <mxGeometry x="650" y="600" width="50" height="50" as="geometry" />
        </mxCell>
        <mxCell id="761dnnyQ54j-Cl0NHfQN-16194" value="11" style="rounded=0;whiteSpace=wrap;html=1;" parent="hqfgi3WCI-vw1G1QX6A0-7" vertex="1">
          <mxGeometry x="650" y="490" width="110" height="110" as="geometry" />
        </mxCell>
        <mxCell id="761dnnyQ54j-Cl0NHfQN-16195" value="23" style="rounded=0;whiteSpace=wrap;html=1;" parent="hqfgi3WCI-vw1G1QX6A0-7" vertex="1">
          <mxGeometry x="650" y="260" width="230" height="230" as="geometry" />
        </mxCell>
        <mxCell id="761dnnyQ54j-Cl0NHfQN-16196" value="3" style="rounded=0;whiteSpace=wrap;html=1;" parent="hqfgi3WCI-vw1G1QX6A0-7" vertex="1">
          <mxGeometry x="880" y="260" width="30" height="30" as="geometry" />
        </mxCell>
        <mxCell id="761dnnyQ54j-Cl0NHfQN-16197" value="29" style="rounded=0;whiteSpace=wrap;html=1;" parent="hqfgi3WCI-vw1G1QX6A0-7" vertex="1">
          <mxGeometry x="910" width="290" height="290" as="geometry" />
        </mxCell>
        <mxCell id="761dnnyQ54j-Cl0NHfQN-16198" value="26" style="rounded=0;whiteSpace=wrap;html=1;" parent="hqfgi3WCI-vw1G1QX6A0-7" vertex="1">
          <mxGeometry x="650" width="260" height="260" as="geometry" />
        </mxCell>
        <mxCell id="hqfgi3WCI-vw1G1QX6A0-8" value="" style="group;flipV=1;" vertex="1" connectable="0" parent="1">
          <mxGeometry x="90" y="8920" width="1200" height="1170" as="geometry" />
        </mxCell>
        <mxCell id="761dnnyQ54j-Cl0NHfQN-16284" value="55" style="rounded=0;whiteSpace=wrap;html=1;" parent="hqfgi3WCI-vw1G1QX6A0-8" vertex="1">
          <mxGeometry y="620" width="550" height="550" as="geometry" />
        </mxCell>
        <mxCell id="761dnnyQ54j-Cl0NHfQN-16285" value="32" style="rounded=0;whiteSpace=wrap;html=1;" parent="hqfgi3WCI-vw1G1QX6A0-8" vertex="1">
          <mxGeometry x="550" y="850" width="320" height="320" as="geometry" />
        </mxCell>
        <mxCell id="761dnnyQ54j-Cl0NHfQN-16286" value="33" style="rounded=0;whiteSpace=wrap;html=1;" parent="hqfgi3WCI-vw1G1QX6A0-8" vertex="1">
          <mxGeometry x="870" y="840" width="330" height="330" as="geometry" />
        </mxCell>
        <mxCell id="761dnnyQ54j-Cl0NHfQN-16287" value="23" style="rounded=0;whiteSpace=wrap;html=1;" parent="hqfgi3WCI-vw1G1QX6A0-8" vertex="1">
          <mxGeometry x="550" y="620" width="230" height="230" as="geometry" />
        </mxCell>
        <mxCell id="761dnnyQ54j-Cl0NHfQN-16288" value="9" style="rounded=0;whiteSpace=wrap;html=1;" parent="hqfgi3WCI-vw1G1QX6A0-8" vertex="1">
          <mxGeometry x="780" y="760" width="90" height="90" as="geometry" />
        </mxCell>
        <mxCell id="761dnnyQ54j-Cl0NHfQN-16289" value="8" style="rounded=0;whiteSpace=wrap;html=1;" parent="hqfgi3WCI-vw1G1QX6A0-8" vertex="1">
          <mxGeometry x="870" y="760" width="80" height="80" as="geometry" />
        </mxCell>
        <mxCell id="761dnnyQ54j-Cl0NHfQN-16290" value="25" style="rounded=0;whiteSpace=wrap;html=1;" parent="hqfgi3WCI-vw1G1QX6A0-8" vertex="1">
          <mxGeometry x="950" y="590" width="250" height="250" as="geometry" />
        </mxCell>
        <mxCell id="761dnnyQ54j-Cl0NHfQN-16291" value="17" style="rounded=0;whiteSpace=wrap;html=1;" parent="hqfgi3WCI-vw1G1QX6A0-8" vertex="1">
          <mxGeometry x="780" y="590" width="170" height="170" as="geometry" />
        </mxCell>
        <mxCell id="761dnnyQ54j-Cl0NHfQN-16292" value="62" style="rounded=0;whiteSpace=wrap;html=1;" parent="hqfgi3WCI-vw1G1QX6A0-8" vertex="1">
          <mxGeometry width="620" height="620" as="geometry" />
        </mxCell>
        <mxCell id="761dnnyQ54j-Cl0NHfQN-16293" value="16" style="rounded=0;whiteSpace=wrap;html=1;" parent="hqfgi3WCI-vw1G1QX6A0-8" vertex="1">
          <mxGeometry x="620" y="460" width="160" height="160" as="geometry" />
        </mxCell>
        <mxCell id="761dnnyQ54j-Cl0NHfQN-16294" value="13" style="rounded=0;whiteSpace=wrap;html=1;" parent="hqfgi3WCI-vw1G1QX6A0-8" vertex="1">
          <mxGeometry x="780" y="460" width="130" height="130" as="geometry" />
        </mxCell>
        <mxCell id="761dnnyQ54j-Cl0NHfQN-16295" value="29" style="rounded=0;whiteSpace=wrap;html=1;" parent="hqfgi3WCI-vw1G1QX6A0-8" vertex="1">
          <mxGeometry x="910" y="300" width="290" height="290" as="geometry" />
        </mxCell>
        <mxCell id="761dnnyQ54j-Cl0NHfQN-16296" value="18" style="rounded=0;whiteSpace=wrap;html=1;" parent="hqfgi3WCI-vw1G1QX6A0-8" vertex="1">
          <mxGeometry x="620" y="280" width="180" height="180" as="geometry" />
        </mxCell>
        <mxCell id="761dnnyQ54j-Cl0NHfQN-16297" value="11" style="rounded=0;whiteSpace=wrap;html=1;" parent="hqfgi3WCI-vw1G1QX6A0-8" vertex="1">
          <mxGeometry x="800" y="350" width="110" height="110" as="geometry" />
        </mxCell>
        <mxCell id="761dnnyQ54j-Cl0NHfQN-16298" value="7" style="rounded=0;whiteSpace=wrap;html=1;" parent="hqfgi3WCI-vw1G1QX6A0-8" vertex="1">
          <mxGeometry x="800" y="280" width="70" height="70" as="geometry" />
        </mxCell>
        <mxCell id="761dnnyQ54j-Cl0NHfQN-16299" value="4" style="rounded=0;whiteSpace=wrap;html=1;" parent="hqfgi3WCI-vw1G1QX6A0-8" vertex="1">
          <mxGeometry x="870" y="310" width="40" height="40" as="geometry" />
        </mxCell>
        <mxCell id="761dnnyQ54j-Cl0NHfQN-16300" value="3" style="rounded=0;whiteSpace=wrap;html=1;" parent="hqfgi3WCI-vw1G1QX6A0-8" vertex="1">
          <mxGeometry x="870" y="280" width="30" height="30" as="geometry" />
        </mxCell>
        <mxCell id="761dnnyQ54j-Cl0NHfQN-16301" value="1" style="rounded=0;whiteSpace=wrap;html=1;" parent="hqfgi3WCI-vw1G1QX6A0-8" vertex="1">
          <mxGeometry x="900" y="300" width="10" height="10" as="geometry" />
        </mxCell>
        <mxCell id="761dnnyQ54j-Cl0NHfQN-16302" value="30" style="rounded=0;whiteSpace=wrap;html=1;" parent="hqfgi3WCI-vw1G1QX6A0-8" vertex="1">
          <mxGeometry x="900" width="300" height="300" as="geometry" />
        </mxCell>
        <mxCell id="761dnnyQ54j-Cl0NHfQN-16303" value="28" style="rounded=0;whiteSpace=wrap;html=1;" parent="hqfgi3WCI-vw1G1QX6A0-8" vertex="1">
          <mxGeometry x="620" width="280" height="280" as="geometry" />
        </mxCell>
        <mxCell id="hqfgi3WCI-vw1G1QX6A0-9" value="" style="group;flipV=1;" vertex="1" connectable="0" parent="1">
          <mxGeometry x="90" y="10190" width="1200" height="1200" as="geometry" />
        </mxCell>
        <mxCell id="761dnnyQ54j-Cl0NHfQN-45951" value="40" style="rounded=0;whiteSpace=wrap;html=1;" parent="hqfgi3WCI-vw1G1QX6A0-9" vertex="1">
          <mxGeometry y="800" width="400" height="400" as="geometry" />
        </mxCell>
        <mxCell id="761dnnyQ54j-Cl0NHfQN-45952" value="34" style="rounded=0;whiteSpace=wrap;html=1;" parent="hqfgi3WCI-vw1G1QX6A0-9" vertex="1">
          <mxGeometry x="400" y="860" width="340" height="340" as="geometry" />
        </mxCell>
        <mxCell id="761dnnyQ54j-Cl0NHfQN-45953" value="46" style="rounded=0;whiteSpace=wrap;html=1;" parent="hqfgi3WCI-vw1G1QX6A0-9" vertex="1">
          <mxGeometry x="740" y="740" width="460" height="460" as="geometry" />
        </mxCell>
        <mxCell id="761dnnyQ54j-Cl0NHfQN-45954" value="6" style="rounded=0;whiteSpace=wrap;html=1;" parent="hqfgi3WCI-vw1G1QX6A0-9" vertex="1">
          <mxGeometry x="400" y="800" width="60" height="60" as="geometry" />
        </mxCell>
        <mxCell id="761dnnyQ54j-Cl0NHfQN-45955" value="16" style="rounded=0;whiteSpace=wrap;html=1;" parent="hqfgi3WCI-vw1G1QX6A0-9" vertex="1">
          <mxGeometry x="460" y="700" width="160" height="160" as="geometry" />
        </mxCell>
        <mxCell id="761dnnyQ54j-Cl0NHfQN-45956" value="12" style="rounded=0;whiteSpace=wrap;html=1;" parent="hqfgi3WCI-vw1G1QX6A0-9" vertex="1">
          <mxGeometry x="620" y="740" width="120" height="120" as="geometry" />
        </mxCell>
        <mxCell id="761dnnyQ54j-Cl0NHfQN-45957" value="14" style="rounded=0;whiteSpace=wrap;html=1;" parent="hqfgi3WCI-vw1G1QX6A0-9" vertex="1">
          <mxGeometry y="660" width="140" height="140" as="geometry" />
        </mxCell>
        <mxCell id="761dnnyQ54j-Cl0NHfQN-45958" value="9" style="rounded=0;whiteSpace=wrap;html=1;" parent="hqfgi3WCI-vw1G1QX6A0-9" vertex="1">
          <mxGeometry x="140" y="710" width="90" height="90" as="geometry" />
        </mxCell>
        <mxCell id="761dnnyQ54j-Cl0NHfQN-45959" value="13" style="rounded=0;whiteSpace=wrap;html=1;" parent="hqfgi3WCI-vw1G1QX6A0-9" vertex="1">
          <mxGeometry x="230" y="670" width="130" height="130" as="geometry" />
        </mxCell>
        <mxCell id="761dnnyQ54j-Cl0NHfQN-45960" value="5" style="rounded=0;whiteSpace=wrap;html=1;" parent="hqfgi3WCI-vw1G1QX6A0-9" vertex="1">
          <mxGeometry x="140" y="660" width="50" height="50" as="geometry" />
        </mxCell>
        <mxCell id="761dnnyQ54j-Cl0NHfQN-45961" value="4" style="rounded=0;whiteSpace=wrap;html=1;" parent="hqfgi3WCI-vw1G1QX6A0-9" vertex="1">
          <mxGeometry x="190" y="670" width="40" height="40" as="geometry" />
        </mxCell>
        <mxCell id="761dnnyQ54j-Cl0NHfQN-45962" value="10" style="rounded=0;whiteSpace=wrap;html=1;" parent="hqfgi3WCI-vw1G1QX6A0-9" vertex="1">
          <mxGeometry x="360" y="700" width="100" height="100" as="geometry" />
        </mxCell>
        <mxCell id="761dnnyQ54j-Cl0NHfQN-45963" value="25" style="rounded=0;whiteSpace=wrap;html=1;" parent="hqfgi3WCI-vw1G1QX6A0-9" vertex="1">
          <mxGeometry x="620" y="490" width="250" height="250" as="geometry" />
        </mxCell>
        <mxCell id="761dnnyQ54j-Cl0NHfQN-45964" value="3" style="rounded=0;whiteSpace=wrap;html=1;" parent="hqfgi3WCI-vw1G1QX6A0-9" vertex="1">
          <mxGeometry x="360" y="670" width="30" height="30" as="geometry" />
        </mxCell>
        <mxCell id="761dnnyQ54j-Cl0NHfQN-45965" value="23" style="rounded=0;whiteSpace=wrap;html=1;" parent="hqfgi3WCI-vw1G1QX6A0-9" vertex="1">
          <mxGeometry x="390" y="470" width="230" height="230" as="geometry" />
        </mxCell>
        <mxCell id="761dnnyQ54j-Cl0NHfQN-45966" value="20" style="rounded=0;whiteSpace=wrap;html=1;" parent="hqfgi3WCI-vw1G1QX6A0-9" vertex="1">
          <mxGeometry x="190" y="470" width="200" height="200" as="geometry" />
        </mxCell>
        <mxCell id="761dnnyQ54j-Cl0NHfQN-45967" value="19" style="rounded=0;whiteSpace=wrap;html=1;" parent="hqfgi3WCI-vw1G1QX6A0-9" vertex="1">
          <mxGeometry y="470" width="190" height="190" as="geometry" />
        </mxCell>
        <mxCell id="761dnnyQ54j-Cl0NHfQN-45968" value="33" style="rounded=0;whiteSpace=wrap;html=1;" parent="hqfgi3WCI-vw1G1QX6A0-9" vertex="1">
          <mxGeometry x="870" y="410" width="330" height="330" as="geometry" />
        </mxCell>
        <mxCell id="761dnnyQ54j-Cl0NHfQN-45969" value="17" style="rounded=0;whiteSpace=wrap;html=1;" parent="hqfgi3WCI-vw1G1QX6A0-9" vertex="1">
          <mxGeometry x="620" y="320" width="170" height="170" as="geometry" />
        </mxCell>
        <mxCell id="761dnnyQ54j-Cl0NHfQN-45970" value="8" style="rounded=0;whiteSpace=wrap;html=1;" parent="hqfgi3WCI-vw1G1QX6A0-9" vertex="1">
          <mxGeometry x="790" y="410" width="80" height="80" as="geometry" />
        </mxCell>
        <mxCell id="761dnnyQ54j-Cl0NHfQN-45971" value="41" style="rounded=0;whiteSpace=wrap;html=1;" parent="hqfgi3WCI-vw1G1QX6A0-9" vertex="1">
          <mxGeometry x="790" width="410" height="410" as="geometry" />
        </mxCell>
        <mxCell id="761dnnyQ54j-Cl0NHfQN-45972" value="47" style="rounded=0;whiteSpace=wrap;html=1;" parent="hqfgi3WCI-vw1G1QX6A0-9" vertex="1">
          <mxGeometry width="470" height="470" as="geometry" />
        </mxCell>
        <mxCell id="761dnnyQ54j-Cl0NHfQN-45973" value="15" style="rounded=0;whiteSpace=wrap;html=1;" parent="hqfgi3WCI-vw1G1QX6A0-9" vertex="1">
          <mxGeometry x="470" y="320" width="150" height="150" as="geometry" />
        </mxCell>
        <mxCell id="761dnnyQ54j-Cl0NHfQN-45974" value="32" style="rounded=0;whiteSpace=wrap;html=1;" parent="hqfgi3WCI-vw1G1QX6A0-9" vertex="1">
          <mxGeometry x="470" width="320" height="320" as="geometry" />
        </mxCell>
      </root>
    </mxGraphModel>
  </diagram>
</mxfile>
